<svg width="120" height="120" viewBox="0 0 120 120" fill="none" xmlns="http://www.w3.org/2000/svg">
<path opacity="0.25" d="M60 96C79.8823 96 96 79.8823 96 60C96 40.1177 79.8823 24 60 24C40.1177 24 24 40.1177 24 60C24 79.8823 40.1177 96 60 96Z" stroke="#7DDF64" stroke-width="2"/>
<path opacity="0.4" d="M60 89C76.0163 89 89 76.0163 89 60C89 43.9837 76.0163 31 60 31C43.9837 31 31 43.9837 31 60C31 76.0163 43.9837 89 60 89Z" stroke="#5FD841" stroke-width="2"/>
<path opacity="0.6" d="M60 82C72.1503 82 82 72.1503 82 60C82 47.8497 72.1503 38 60 38C47.8497 38 38 47.8497 38 60C38 72.1503 47.8497 82 60 82Z" stroke="#49C829" stroke-width="2"/>
<path opacity="0.8" d="M60 75C68.2843 75 75 68.2843 75 60C75 51.7157 68.2843 45 60 45C51.7157 45 45 51.7157 45 60C45 68.2843 51.7157 75 60 75Z" stroke="#3DA722" stroke-width="2"/>
<path d="M60 68C64.4183 68 68 64.4183 68 60C68 55.5817 64.4183 52 60 52C55.5817 52 52 55.5817 52 60C52 64.4183 55.5817 68 60 68Z" stroke="#31851B" stroke-width="2"/>
<path d="M60 64C62.2091 64 64 62.2091 64 60C64 57.7909 62.2091 56 60 56C57.7909 56 56 57.7909 56 60C56 62.2091 57.7909 64 60 64Z" fill="#246414"/>
</svg>
